<?xml version="1.0" encoding="iso-8859-1"?>
<!-- Generator: Adobe Illustrator 16.0.0, SVG Export Plug-In . SVG Version: 6.00 Build 0)  -->
<!DOCTYPE svg PUBLIC "-//W3C//DTD SVG 1.1//EN" "http://www.w3.org/Graphics/SVG/1.1/DTD/svg11.dtd">
<svg version="1.1" id="Capa_1" xmlns="http://www.w3.org/2000/svg" xmlns:xlink="http://www.w3.org/1999/xlink" x="0px" y="0px"
	 width="218.235px" height="218.235px" viewBox="0 0 218.235 218.235" style="enable-background:new 0 0 218.235 218.235;"
	 xml:space="preserve">
<g>
	<g>
		<path d="M218.141,132.479c-0.203-0.95-1.071-3.16-4.763-3.16h-8.238c-1.863,0-3.375,1.511-3.375,3.375s1.512,3.375,3.375,3.375
			h0.11c-7.46,4.102-19.829,10.073-31.117,15.13h-14.065c-1.864,0-3.375,1.511-3.375,3.375s1.511,3.375,3.375,3.375h7.717
			l-3.776,4.949h-110.3l-3.435-4.949h88.943c1.864,0,3.375-1.511,3.375-3.375s-1.511-3.375-3.375-3.375h-95.37
			c-11.226-5.057-23.526-11.031-30.93-15.13h175.462c1.864,0,3.375-1.511,3.375-3.375s-1.511-3.375-3.375-3.375H4.865
			c-3.693,0-4.565,2.211-4.769,3.161c-0.638,2.979,1.914,5.06,7.511,8.33c3.334,1.948,8.01,4.409,13.898,7.312
			c9.958,4.912,20.132,9.484,20.233,9.53c0.05,0.022,0.102,0.039,0.152,0.06l7.278,10.485c0.631,0.909,1.666,1.451,2.773,1.451
			h113.736c1.053,0,2.045-0.491,2.684-1.328l8.274-10.847c1.99-0.896,11.055-4.989,19.955-9.354
			c5.924-2.904,10.63-5.364,13.986-7.312C216.208,137.539,218.776,135.46,218.141,132.479z"/>
		<path d="M78.017,115.077c-1.012,1.565-0.564,3.655,1.002,4.667c0.567,0.366,1.201,0.541,1.829,0.541
			c1.107,0,2.192-0.544,2.837-1.543c0.541-0.837,13.119-20.672,1.322-35.714c-8.209-10.465,3.419-24.714,3.537-24.857
			c1.191-1.43,1-3.555-0.428-4.749c-1.43-1.196-3.559-1.006-4.754,0.424c-0.154,0.184-3.8,4.583-6.13,10.72
			c-3.261,8.591-2.41,16.417,2.463,22.629C88.511,98.433,78.12,114.917,78.017,115.077z"/>
		<path d="M125.461,115.077c-1.012,1.565-0.564,3.655,1.002,4.667c0.566,0.366,1.201,0.541,1.829,0.541
			c1.106,0,2.191-0.544,2.837-1.543c0.541-0.837,13.119-20.672,1.321-35.714c-8.192-10.444,3.372-24.657,3.537-24.856
			c1.191-1.43,1.001-3.556-0.428-4.75c-1.43-1.196-3.559-1.006-4.754,0.424c-0.153,0.184-3.8,4.583-6.13,10.72
			c-3.261,8.591-2.41,16.417,2.463,22.629C135.955,98.433,125.562,114.917,125.461,115.077z"/>
		<path d="M101.039,118.821c-1.181,1.442-0.969,3.569,0.472,4.75c0.627,0.514,1.384,0.764,2.137,0.764
			c0.977,0,1.946-0.422,2.613-1.235c0.176-0.215,4.344-5.357,6.65-12.785c3.151-10.152,1.366-19.675-5.165-27.54
			c-9.532-11.479,3.483-28.505,3.663-28.735c1.146-1.467,0.89-3.586-0.576-4.735c-1.467-1.149-3.588-0.893-4.738,0.574
			c-0.683,0.871-16.572,21.514-3.54,37.209C114.672,101.68,101.597,118.134,101.039,118.821z"/>
	</g>
</g>
<g>
</g>
<g>
</g>
<g>
</g>
<g>
</g>
<g>
</g>
<g>
</g>
<g>
</g>
<g>
</g>
<g>
</g>
<g>
</g>
<g>
</g>
<g>
</g>
<g>
</g>
<g>
</g>
<g>
</g>
</svg>
